# xmcd
#
# Track frame offsets: 
#        150
#        20283
#        38425
#        60828
#        80075
#        98920
#        117765
#        137233
#        158570
#        180388
#
# Disc length: 2676 seconds
#
# Revision: 0
# Processed by: cddbd v1.5.2PL0 Copyright (c) Steve Scherf et al.
# Submitted via: ExactAudioCopyFreeDBPlugin 1.0
#
DISCID=6c0a720a
DTITLE=Magazine - No Thyself
DYEAR=2011
DGENRE=New Wave
TTITLE0=Do The Meaning
TTITLE1=Other Thematic Material
TTITLE2=The Worst Of Progress....
TTITLE3=Hello Mister Curtis (with apologies)
TTITLE4=Physics
TTITLE5=Happening In English
TTITLE6=Holy Dotage
TTITLE7=Of Course Howard (1979)
TTITLE8=Final Analysis Waltz
TTITLE9=The Burden Of A Song
EXTD=
EXTT0=
EXTT1=
EXTT2=
EXTT3=
EXTT4=
EXTT5=
EXTT6=
EXTT7=
EXTT8=
EXTT9=
PLAYORDER=
